<svg xmlns="http://www.w3.org/2000/svg" viewBox="0 0 154.38 168.12"><defs><style>.cls-1{fill:#009140;}</style></defs><title>devgrow_final</title><g id="final"><path class="cls-1" d="M118.09,25.46c1.67,4.58,3.4,10.23,4.58,14.67,12,10.34,23,28.95,23,51.2,0,18.53-8,37.66-21.87,50.1a49.68,49.68,0,0,1-28.25,12.46c-8.71.85-21.55,0-28.16-6.64a10.34,10.34,0,0,1-3-5.93C63.79,137,66.83,131,68,126.8c19.77,2.49,30.41-3.59,34.37-6.32,19-13,26.44-45.49,16.28-83.67q-1.75-6.66-4.26-13.54A177.71,177.71,0,0,0,103.89,0a107.9,107.9,0,0,1-4.57,17c-1,2.73-2.13,5.56-3.49,8.45a96.65,96.65,0,0,1-6.64,12C71.5,64.42,48.55,69.4,44.56,90.49c-1.3,6.89.56,17.16,9.91,31.93,0,0,18.94-40,29.16-47-.06,0-22,53-23.31,55.81a19.42,19.42,0,0,1-14.08,10.63c-6.5,1.06-12.92-1.79-18-5.72a50.12,50.12,0,0,1-12.89-15.61c-4.89-9-6.69-19.06-6.69-29.21A68.49,68.49,0,0,1,77.19,22.85c6.46,0,10.07.17,16,1.84,1.36-2.89,2.51-5.72,3.49-8.45-7-2.09-11.8-2.5-19.49-2.5a77.19,77.19,0,1,0,77.19,77.19C154.38,61.78,139,38.9,118.09,25.46Z"/></g></svg>