<svg xmlns="http://www.w3.org/2000/svg" viewBox="0 0 844.29 211.86"><defs><style>.cls-1{fill:#009140;}</style></defs><title>devgrow_final</title><g id="final"><path class="cls-1" d="M271.38,7A3.37,3.37,0,0,0,268,10.31v80l-4-4.78a45.84,45.84,0,0,0-35.42-16.61c-.66,0-1.33,0-2,0a46.1,46.1,0,0,0-30.71,78.6,46.46,46.46,0,0,0,32.74,13.61c.67,0,1.35,0,2,0A45.53,45.53,0,0,0,262,146.65a46.91,46.91,0,0,0,12.74-32.22V10.31A3.37,3.37,0,0,0,271.38,7Zm-3.45,110.67a39.41,39.41,0,0,1-36.74,36.75c-.84,0-1.68.07-2.52.07A39.4,39.4,0,0,1,226,75.72c.83,0,1.68-.08,2.52-.08a39.45,39.45,0,0,1,39.37,42Z"/><path class="cls-1" d="M558.37,104.88a45.71,45.71,0,0,0-3.14-9.14,46.93,46.93,0,0,0-27.82-24.56,46,46,0,0,0-14.27-2.26c-.59,0-1.18,0-1.76,0a46.13,46.13,0,1,0,37.2,75.59l4-4.77v25.46a40.07,40.07,0,0,1-11,27.64,38.9,38.9,0,0,1-26.95,12.24l-1.47,0a39.19,39.19,0,0,1-27.32-11,39.59,39.59,0,0,1-9.95-15.56,36.19,36.19,0,0,1-1.91-9.34c-.18-2.72-1.29-3.47-2.23-3.82a3.43,3.43,0,0,0-1.15-.2,3.35,3.35,0,0,0-3.35,3.53,46.53,46.53,0,0,0,38.67,42.58,47.62,47.62,0,0,0,7.08.58h.18a46.19,46.19,0,0,0,46-42.76l.14-1.86V116.86A53.3,53.3,0,0,0,558.37,104.88Zm-5.92,12.74a39.42,39.42,0,0,1-36.74,36.75c-.83,0-1.68.07-2.52.07a39.4,39.4,0,0,1-2.63-78.72c.83,0,1.68-.08,2.52-.08a39.45,39.45,0,0,1,39.37,42Z"/><path class="cls-1" d="M699.94,82.44a46.51,46.51,0,0,0-32.65-13.52c-.7,0-1.41,0-2.12,0a46.1,46.1,0,0,0-30.43,78.67,46.48,46.48,0,0,0,32.66,13.53c.69,0,1.4,0,2.1,0a46.11,46.11,0,0,0,30.44-78.68Zm-4.75,60.45a39.75,39.75,0,0,1-27.9,11.55c-.84,0-1.69,0-2.53-.07a39.41,39.41,0,0,1,2.63-78.73c.84,0,1.69,0,2.52.08a39.39,39.39,0,0,1,25.28,67.17Z"/><path class="cls-1" d="M377,115.6V115a46.15,46.15,0,0,0-46.1-46.12c-.84,0-1.69,0-2.53.07a46.13,46.13,0,0,0,2.51,92.18c15.88,0,31.18-8.53,39-21.73,1.27-2.14,1.79-4.07,1.41-5.31a2.72,2.72,0,0,0-1.66-1.64,3.38,3.38,0,0,0-1.4-.3,3.18,3.18,0,0,0-2.51,1.12,39.51,39.51,0,0,0-2.36,3.5,31.37,31.37,0,0,1-3.75,5.21,39.42,39.42,0,0,1-68-24l-.18-2.41H377Zm-84.5-9.46a39.42,39.42,0,0,1,76.76,0l.64,2.75h-78Z"/><path class="cls-1" d="M466.6,75.37l-38.34,81.34a6.82,6.82,0,0,1-12.35,0L377.46,75.14a3.37,3.37,0,0,1,3-4.79,3.4,3.4,0,0,1,3.05,2l36.5,78.28,2,4.36,2-4.36,36.4-78a3.38,3.38,0,0,1,3.05-2,3.37,3.37,0,0,1,3,4.78Z"/><path class="cls-1" d="M618.31,76.46a5.79,5.79,0,0,1-2.94.76l-.68.07a40,40,0,0,0-5.65,1,38.61,38.61,0,0,0-8.3,3.23,39.42,39.42,0,0,0-21,34.88v40a3.37,3.37,0,0,1-3.36,3.36h-.23a3.51,3.51,0,0,1-3.13-3.54V73.75a3.35,3.35,0,0,1,3.36-3.36h.23a3.5,3.5,0,0,1,3.13,3.54v17.7l4-4.76a46.67,46.67,0,0,1,9.44-8.58c5.08-3.48,13.11-7.65,22.44-7.77h.35c1.56,0,2.15.19,2.85.92a3.13,3.13,0,0,1,.59.84A3.39,3.39,0,0,1,618.31,76.46Z"/><path class="cls-1" d="M844,76.47,806.1,157.68a7.46,7.46,0,0,1-13.51,0l-11.08-23.76-2-4.35-2,4.35-11.08,23.77a7.42,7.42,0,0,1-13.45,0L715,76.47A3.37,3.37,0,0,1,716.61,72a3.37,3.37,0,0,1,4.46,1.63l36.46,78.16a2.29,2.29,0,0,0,2.08,1.33,2.32,2.32,0,0,0,2.09-1.33L778.39,116a1.18,1.18,0,0,1,1.09-.69,1.16,1.16,0,0,1,1.08.69l16.71,35.81a2.29,2.29,0,0,0,4.16,0l36.45-78.16a3.38,3.38,0,0,1,3-1.94,3.34,3.34,0,0,1,3.15,2.21A3.32,3.32,0,0,1,844,76.47Z"/><path class="cls-1" d="M118.09,25.46c1.67,4.58,3.4,10.23,4.58,14.67,12,10.34,23,28.95,23,51.2,0,18.53-8,37.66-21.87,50.1a49.68,49.68,0,0,1-28.25,12.46c-8.71.85-21.55,0-28.16-6.64a10.34,10.34,0,0,1-3-5.93C63.79,137,66.83,131,68,126.8c19.77,2.49,30.41-3.59,34.37-6.32,19-13,26.44-45.49,16.28-83.67q-1.75-6.66-4.26-13.54A177.71,177.71,0,0,0,103.89,0a107.9,107.9,0,0,1-4.57,17c-1,2.73-2.13,5.56-3.49,8.45a96.65,96.65,0,0,1-6.64,12C71.5,64.42,48.55,69.4,44.56,90.49c-1.3,6.89.56,17.16,9.91,31.93,0,0,18.94-40,29.16-47-.06,0-22,53-23.31,55.81a19.42,19.42,0,0,1-14.08,10.63c-6.5,1.06-12.92-1.79-18-5.72a50.12,50.12,0,0,1-12.89-15.61c-4.89-9-6.69-19.06-6.69-29.21A68.49,68.49,0,0,1,77.19,22.85c6.46,0,10.07.17,16,1.84,1.36-2.89,2.51-5.72,3.49-8.45-7-2.09-11.8-2.5-19.49-2.5a77.19,77.19,0,1,0,77.19,77.19C154.38,61.78,139,38.9,118.09,25.46Z"/></g></svg>